<?xml version="1.0" standalone="no"?>
<!DOCTYPE svg PUBLIC "-//W3C//DTD SVG 20010904//EN"
 "http://www.w3.org/TR/2001/REC-SVG-20010904/DTD/svg10.dtd">
<svg version="1.0" xmlns="http://www.w3.org/2000/svg"
 width="720.000000pt" height="266.000000pt" viewBox="0 0 720.000000 266.000000"
 preserveAspectRatio="xMidYMid meet">

<g transform="translate(0.000000,266.000000) scale(0.100000,-0.100000)"
fill="#000000" stroke="none">
<path d="M2957 2022 c-70 -70 -127 -131 -127 -135 0 -4 7 -7 16 -7 9 0 69 -27
133 -61 258 -135 383 -260 426 -424 19 -75 19 -141 -1 -263 -24 -145 -15 -274
25 -382 18 -47 35 -88 39 -92 4 -4 8 74 8 175 1 182 1 182 43 342 23 88 47
178 53 200 5 22 8 81 5 130 -6 101 -30 173 -93 277 -46 75 -204 236 -294 299
-112 79 -90 85 -233 -59z"/>
<path d="M4024 2029 c-45 -9 -119 -29 -165 -44 -82 -27 -253 -107 -262 -122
-5 -8 82 -236 95 -248 3 -4 24 17 46 47 91 123 233 257 371 352 49 33 52 36
25 34 -16 -1 -66 -10 -110 -19z"/>
<path d="M4350 2033 c-198 -128 -234 -156 -350 -273 -69 -69 -146 -156 -172
-195 -95 -142 -176 -332 -214 -500 -22 -101 -27 -367 -8 -478 19 -117 45 -192
64 -191 12 1 234 155 263 183 4 4 -9 47 -29 96 -129 319 -64 670 184 993 67
88 201 217 283 273 l60 40 -18 31 c-22 38 -31 41 -63 21z"/>
</g>
</svg>
